<svg xmlns="http://www.w3.org/2000/svg" version="1.1" xmlns:xlink="http://www.w3.org/1999/xlink" xmlns:svgjs="http://svgjs.dev/svgjs" viewBox="0 0 15.00046912261628 13.492052026434315"><g transform="matrix(1,0,0,1,1.1851906159956407,10.366011410438675)"><g><path d=" M 0.2595 0.0764999999999999 L 0.2595 0.5249999999999999 L 0.8190000000000001 0.5249999999999999 L 0.8190000000000001 0.5939999999999999 L 0.2595 0.5939999999999999 L 0.2595 1.0574999999999999 L 0.183 1.0574999999999999 L 0.183 0.00749999999999984 L 0.885 0.00749999999999984 L 0.885 0.0764999999999999 L 0.2595 0.0764999999999999 M 1.14447216796875 0.00749999999999984 L 1.22097216796875 0.00749999999999984 L 1.22097216796875 0.9884999999999999 L 1.82547216796875 0.9884999999999999 L 1.82547216796875 1.0574999999999999 L 1.14447216796875 1.0574999999999999 L 1.14447216796875 0.00749999999999984 M 2.687969970703125 0.7619999999999999 L 2.078969970703125 0.7619999999999999 L 1.945469970703125 1.0574999999999999 L 1.862969970703125 1.0574999999999999 L 2.345969970703125 0.00749999999999984 L 2.422469970703125 0.00749999999999984 L 2.905469970703125 1.0574999999999999 L 2.822969970703125 1.0574999999999999 L 2.687969970703125 0.7619999999999999 M 2.659469970703125 0.6974999999999999 L 2.383469970703125 0.09149999999999991 L 2.108969970703125 0.6974999999999999 L 2.659469970703125 0.6974999999999999 M 3.16724560546875 1.0252499999999998 Q 3.0629956054687497 0.9854999999999998 3.0044956054687497 0.9224999999999999 L 3.03899560546875 0.8654999999999999 Q 3.09449560546875 0.9239999999999999 3.18824560546875 0.9607499999999999 Q 3.28199560546875 0.9974999999999998 3.38549560546875 0.9974999999999998 Q 3.53549560546875 0.9974999999999998 3.61199560546875 0.9404999999999999 Q 3.68849560546875 0.8834999999999998 3.68849560546875 0.7919999999999998 Q 3.68849560546875 0.7214999999999998 3.6479956054687497 0.6794999999999999 Q 3.60749560546875 0.6375 3.54749560546875 0.6149999999999999 Q 3.48749560546875 0.5924999999999998 3.38549560546875 0.5684999999999999 Q 3.26999560546875 0.5399999999999999 3.20024560546875 0.5129999999999999 Q 3.13049560546875 0.4859999999999999 3.08174560546875 0.42974999999999985 Q 3.03299560546875 0.37349999999999983 3.03299560546875 0.2789999999999999 Q 3.03299560546875 0.2024999999999999 3.07349560546875 0.13874999999999982 Q 3.11399560546875 0.07499999999999984 3.19724560546875 0.03749999999999987 Q 3.28049560546875 -2.220446049250313e-16 3.40499560546875 -2.220446049250313e-16 Q 3.49199560546875 -2.220446049250313e-16 3.57599560546875 0.025499999999999856 Q 3.65999560546875 0.050999999999999934 3.72149560546875 0.09449999999999992 L 3.69299560546875 0.15599999999999992 Q 3.62999560546875 0.11249999999999982 3.5542456054687497 0.08999999999999986 Q 3.47849560546875 0.0674999999999999 3.40499560546875 0.0674999999999999 Q 3.25949560546875 0.0674999999999999 3.18449560546875 0.1259999999999999 Q 3.1094956054687497 0.1844999999999999 3.1094956054687497 0.27749999999999986 Q 3.1094956054687497 0.34799999999999986 3.14999560546875 0.3899999999999999 Q 3.19049560546875 0.43199999999999983 3.2504956054687497 0.4544999999999999 Q 3.3104956054687498 0.47699999999999987 3.4139956054687497 0.5024999999999998 Q 3.52949560546875 0.5309999999999999 3.59849560546875 0.5579999999999998 Q 3.66749560546875 0.5849999999999999 3.71624560546875 0.6397499999999998 Q 3.7649956054687497 0.6944999999999999 3.7649956054687497 0.7874999999999999 Q 3.7649956054687497 0.8639999999999999 3.72374560546875 0.9269999999999998 Q 3.68249560546875 0.9899999999999999 3.59699560546875 1.0274999999999999 Q 3.51149560546875 1.065 3.38699560546875 1.065 Q 3.27149560546875 1.065 3.16724560546875 1.0252499999999998 M 4.8945087890625 0.00749999999999984 L 4.8945087890625 1.0574999999999999 L 4.8180087890625 1.0574999999999999 L 4.8180087890625 0.5579999999999998 L 4.1160087890625 0.5579999999999998 L 4.1160087890625 1.0574999999999999 L 4.0395087890625 1.0574999999999999 L 4.0395087890625 0.00749999999999984 L 4.1160087890625 0.00749999999999984 L 4.1160087890625 0.4904999999999998 L 4.8180087890625 0.4904999999999998 L 4.8180087890625 0.00749999999999984 L 4.8945087890625 0.00749999999999984 M 6.268547607421875 1.0574999999999999 L 6.267047607421875 0.15899999999999992 L 5.8275476074218755 0.9179999999999999 L 5.790047607421875 0.9179999999999999 L 5.350547607421875 0.1619999999999998 L 5.350547607421875 1.0574999999999999 L 5.275547607421875 1.0574999999999999 L 5.275547607421875 0.00749999999999984 L 5.340047607421875 0.00749999999999984 L 5.809547607421875 0.8189999999999998 L 6.279047607421875 0.00749999999999984 L 6.3420476074218755 0.00749999999999984 L 6.3435476074218755 1.0574999999999999 L 6.268547607421875 1.0574999999999999 M 6.8910380859375 0.9952499999999999 Q 6.7665380859374995 0.9254999999999999 6.6952880859374995 0.8039999999999998 Q 6.624038085937499 0.6824999999999999 6.624038085937499 0.5324999999999999 Q 6.624038085937499 0.38249999999999984 6.6952880859374995 0.2609999999999999 Q 6.7665380859374995 0.13949999999999985 6.8910380859375 0.06974999999999987 Q 7.0155380859375 -2.220446049250313e-16 7.1700380859375 -2.220446049250313e-16 Q 7.3245380859375 -2.220446049250313e-16 7.4490380859375 0.06899999999999984 Q 7.5735380859375 0.1379999999999999 7.6447880859375 0.25949999999999984 Q 7.7160380859375 0.3809999999999999 7.7160380859375 0.5324999999999999 Q 7.7160380859375 0.6839999999999999 7.6447880859375 0.8054999999999999 Q 7.5735380859375 0.9269999999999998 7.4490380859375 0.9959999999999999 Q 7.3245380859375 1.065 7.1700380859375 1.065 Q 7.0155380859375 1.065 6.8910380859375 0.9952499999999999 M 7.4085380859375 0.9344999999999999 Q 7.5150380859374994 0.8744999999999998 7.5765380859375 0.7687499999999998 Q 7.6380380859375 0.6629999999999998 7.6380380859375 0.5324999999999999 Q 7.6380380859375 0.4019999999999999 7.5765380859375 0.2962499999999999 Q 7.5150380859374994 0.1904999999999999 7.4085380859375 0.13049999999999984 Q 7.3020380859375 0.0704999999999999 7.1700380859375 0.0704999999999999 Q 7.0380380859375 0.0704999999999999 6.9307880859374995 0.13049999999999984 Q 6.8235380859375 0.1904999999999999 6.7620380859375 0.2962499999999999 Q 6.7005380859375 0.4019999999999999 6.7005380859375 0.5324999999999999 Q 6.7005380859375 0.6629999999999998 6.7620380859375 0.7687499999999998 Q 6.8235380859375 0.8744999999999998 6.9307880859374995 0.9344999999999999 Q 7.0380380859375 0.9944999999999999 7.1700380859375 0.9944999999999999 Q 7.3020380859375 0.9944999999999999 7.4085380859375 0.9344999999999999 M 8.79230712890625 0.6044999999999998 Q 8.85155712890625 0.6719999999999999 8.85155712890625 0.7799999999999998 Q 8.85155712890625 0.9134999999999999 8.75405712890625 0.9854999999999998 Q 8.65655712890625 1.0574999999999999 8.46455712890625 1.0574999999999999 L 7.99655712890625 1.0574999999999999 L 7.99655712890625 0.00749999999999984 L 8.43455712890625 0.00749999999999984 Q 8.60555712890625 0.00749999999999984 8.70080712890625 0.07724999999999982 Q 8.79605712890625 0.1469999999999999 8.79605712890625 0.2759999999999999 Q 8.79605712890625 0.3659999999999999 8.74880712890625 0.4274999999999999 Q 8.70155712890625 0.4889999999999999 8.62055712890625 0.5159999999999999 Q 8.73305712890625 0.5369999999999999 8.79230712890625 0.6044999999999998 M 8.07305712890625 0.0734999999999999 L 8.07305712890625 0.4919999999999999 L 8.43155712890625 0.4919999999999999 Q 8.56955712890625 0.4919999999999999 8.64380712890625 0.43874999999999986 Q 8.718057128906251 0.38549999999999984 8.718057128906251 0.2819999999999999 Q 8.718057128906251 0.17999999999999983 8.64380712890625 0.12674999999999992 Q 8.56955712890625 0.0734999999999999 8.43155712890625 0.0734999999999999 L 8.07305712890625 0.0734999999999999 M 8.69630712890625 0.9382499999999999 Q 8.775057128906251 0.8849999999999999 8.775057128906251 0.7739999999999998 Q 8.775057128906251 0.6629999999999998 8.69630712890625 0.6104999999999998 Q 8.61755712890625 0.5579999999999998 8.46455712890625 0.5579999999999998 L 8.07305712890625 0.5579999999999998 L 8.07305712890625 0.9914999999999998 L 8.46455712890625 0.9914999999999998 Q 8.61755712890625 0.9914999999999998 8.69630712890625 0.9382499999999999 M 10.290106933593751 0.5369999999999999 L 10.36360693359375 0.5369999999999999 L 10.36360693359375 0.9299999999999999 Q 10.294606933593752 0.9959999999999999 10.196356933593751 1.0305 Q 10.098106933593751 1.065 9.988606933593752 1.065 Q 9.832606933593752 1.065 9.707356933593752 0.9959999999999999 Q 9.582106933593751 0.9269999999999998 9.510856933593752 0.8054999999999999 Q 9.439606933593751 0.6839999999999999 9.439606933593751 0.5324999999999999 Q 9.439606933593751 0.3809999999999999 9.510856933593752 0.25949999999999984 Q 9.582106933593751 0.1379999999999999 9.707356933593752 0.06899999999999984 Q 9.832606933593752 -2.220446049250313e-16 9.99010693359375 -2.220446049250313e-16 Q 10.105606933593752 -2.220446049250313e-16 10.202356933593752 0.03674999999999984 Q 10.299106933593752 0.0734999999999999 10.36810693359375 0.1439999999999999 L 10.32010693359375 0.19499999999999984 Q 10.254106933593752 0.1289999999999999 10.172356933593752 0.0997499999999999 Q 10.090606933593751 0.0704999999999999 9.99160693359375 0.0704999999999999 Q 9.856606933593751 0.0704999999999999 9.747856933593752 0.13049999999999984 Q 9.639106933593752 0.1904999999999999 9.577606933593751 0.2962499999999999 Q 9.516106933593752 0.4019999999999999 9.516106933593752 0.5324999999999999 Q 9.516106933593752 0.6614999999999999 9.578356933593751 0.7672499999999999 Q 9.640606933593752 0.8729999999999999 9.748606933593752 0.9337499999999999 Q 9.856606933593751 0.9944999999999999 9.99160693359375 0.9944999999999999 Q 10.171606933593752 0.9944999999999999 10.290106933593751 0.8984999999999999 L 10.290106933593751 0.5369999999999999 M 11.443622314453128 1.0574999999999999 L 11.193122314453127 0.7064999999999999 Q 11.137622314453127 0.7139999999999999 11.091122314453127 0.7139999999999999 L 10.791122314453126 0.7139999999999999 L 10.791122314453126 1.0574999999999999 L 10.714622314453127 1.0574999999999999 L 10.714622314453127 0.00749999999999984 L 11.091122314453127 0.00749999999999984 Q 11.289122314453127 0.00749999999999984 11.401622314453126 0.10124999999999984 Q 11.514122314453127 0.19499999999999984 11.514122314453127 0.3614999999999998 Q 11.514122314453127 0.4859999999999999 11.450372314453126 0.5707499999999999 Q 11.386622314453128 0.6554999999999999 11.268122314453127 0.69 L 11.530622314453128 1.0574999999999999 L 11.443622314453128 1.0574999999999999 M 11.091122314453127 0.6464999999999999 Q 11.259122314453126 0.6464999999999999 11.347622314453128 0.5722499999999999 Q 11.436122314453128 0.4979999999999999 11.436122314453128 0.3614999999999998 Q 11.436122314453128 0.22499999999999987 11.347622314453128 0.15074999999999983 Q 11.259122314453126 0.0764999999999999 11.091122314453127 0.0764999999999999 L 10.791122314453126 0.0764999999999999 L 10.791122314453126 0.6464999999999999 L 11.091122314453127 0.6464999999999999 M 12.534078369140628 0.9884999999999999 L 12.534078369140628 1.0574999999999999 L 11.809578369140628 1.0574999999999999 L 11.809578369140628 0.00749999999999984 L 12.511578369140627 0.00749999999999984 L 12.511578369140627 0.0764999999999999 L 11.886078369140627 0.0764999999999999 L 11.886078369140627 0.4904999999999998 L 12.445578369140629 0.4904999999999998 L 12.445578369140629 0.5579999999999998 L 11.886078369140627 0.5579999999999998 L 11.886078369140627 0.9884999999999999 L 12.534078369140628 0.9884999999999999" fill="#431a10" fill-rule="nonzero"></path></g><g><path d=" M 0.0855 1.4113499999999997 L 0.14100000000000001 1.4113499999999997 L 0.14100000000000001 1.8883499999999998 L 0.435 1.8883499999999998 L 0.435 1.9363499999999998 L 0.0855 1.9363499999999998 L 0.0855 1.4113499999999997 M 0.905991943359375 1.8883499999999998 L 0.905991943359375 1.9363499999999998 L 0.534741943359375 1.9363499999999998 L 0.534741943359375 1.4113499999999997 L 0.8947419433593751 1.4113499999999997 L 0.8947419433593751 1.4593499999999997 L 0.5902419433593751 1.4593499999999997 L 0.5902419433593751 1.6460999999999997 L 0.861741943359375 1.6460999999999997 L 0.861741943359375 1.6933499999999997 L 0.5902419433593751 1.6933499999999997 L 0.5902419433593751 1.8883499999999998 L 0.905991943359375 1.8883499999999998 M 1.3732467041015626 1.7960999999999998 L 1.0807467041015626 1.7960999999999998 L 1.0177467041015626 1.9363499999999998 L 0.9599967041015626 1.9363499999999998 L 1.1999967041015627 1.4113499999999997 L 1.2547467041015627 1.4113499999999997 L 1.4947467041015625 1.9363499999999998 L 1.4362467041015625 1.9363499999999998 L 1.3732467041015626 1.7960999999999998 M 1.3529967041015627 1.7510999999999999 L 1.2269967041015626 1.4690999999999999 L 1.1009967041015627 1.7510999999999999 L 1.3529967041015627 1.7510999999999999 M 1.9477316894531251 1.9363499999999998 L 1.8277316894531253 1.7675999999999998 Q 1.8074816894531252 1.7698499999999997 1.7857316894531252 1.7698499999999997 L 1.6447316894531252 1.7698499999999997 L 1.6447316894531252 1.9363499999999998 L 1.589231689453125 1.9363499999999998 L 1.589231689453125 1.4113499999999997 L 1.7857316894531252 1.4113499999999997 Q 1.8862316894531252 1.4113499999999997 1.9432316894531252 1.4593499999999997 Q 2.000231689453125 1.5073499999999997 2.000231689453125 1.5913499999999998 Q 2.000231689453125 1.6528499999999997 1.9691066894531253 1.6952249999999998 Q 1.9379816894531252 1.7375999999999998 1.8802316894531252 1.7563499999999999 L 2.0084816894531254 1.9363499999999998 L 1.9477316894531251 1.9363499999999998 M 1.9034816894531252 1.6880999999999997 Q 1.9447316894531252 1.6535999999999997 1.9447316894531252 1.5913499999999998 Q 1.9447316894531252 1.5275999999999998 1.9034816894531252 1.4934749999999997 Q 1.8622316894531252 1.4593499999999997 1.7842316894531252 1.4593499999999997 L 1.6447316894531252 1.4593499999999997 L 1.6447316894531252 1.7226 L 1.7842316894531252 1.7226 Q 1.8622316894531252 1.7226 1.9034816894531252 1.6880999999999997 M 2.57774853515625 1.4113499999999997 L 2.57774853515625 1.9363499999999998 L 2.53199853515625 1.9363499999999998 L 2.1944985351562503 1.5103499999999999 L 2.1944985351562503 1.9363499999999998 L 2.1389985351562504 1.9363499999999998 L 2.1389985351562504 1.4113499999999997 L 2.1847485351562503 1.4113499999999997 L 2.5229985351562503 1.8373499999999998 L 2.5229985351562503 1.4113499999999997 L 2.57774853515625 1.4113499999999997 M 3.1402576904296873 1.7548499999999998 L 3.1402576904296873 1.9363499999999998 L 3.0855076904296874 1.9363499999999998 L 3.0855076904296874 1.7548499999999998 L 2.8755076904296875 1.4113499999999997 L 2.9347576904296875 1.4113499999999997 L 3.1147576904296876 1.7060999999999997 L 3.2947576904296874 1.4113499999999997 L 3.3502576904296877 1.4113499999999997 L 3.1402576904296873 1.7548499999999998 M 3.509618041992187 1.9059749999999998 Q 3.4462430419921875 1.8710999999999998 3.4106180419921874 1.8103499999999997 Q 3.3749930419921874 1.7495999999999998 3.3749930419921874 1.6738499999999998 Q 3.3749930419921874 1.5980999999999999 3.4106180419921874 1.5373499999999998 Q 3.4462430419921875 1.4766 3.509618041992187 1.4417249999999997 Q 3.5729930419921874 1.40685 3.650993041992187 1.40685 Q 3.7289930419921875 1.40685 3.791618041992187 1.44135 Q 3.8542430419921874 1.4758499999999999 3.8902430419921874 1.5369749999999998 Q 3.9262430419921874 1.5980999999999999 3.9262430419921874 1.6738499999999998 Q 3.9262430419921874 1.7495999999999998 3.8902430419921874 1.8107249999999997 Q 3.8542430419921874 1.8718499999999998 3.791618041992187 1.9063499999999998 Q 3.7289930419921875 1.9408499999999997 3.650993041992187 1.9408499999999997 Q 3.5729930419921874 1.9408499999999997 3.509618041992187 1.9059749999999998 M 3.763493041992187 1.863225 Q 3.813743041992187 1.8350999999999997 3.8422430419921874 1.7852249999999998 Q 3.8707430419921875 1.7353499999999997 3.8707430419921875 1.6738499999999998 Q 3.8707430419921875 1.6123499999999997 3.8422430419921874 1.5624749999999998 Q 3.813743041992187 1.5125999999999997 3.763493041992187 1.4844749999999998 Q 3.7132430419921874 1.4563499999999998 3.650993041992187 1.4563499999999998 Q 3.5887430419921875 1.4563499999999998 3.5381180419921874 1.4844749999999998 Q 3.4874930419921872 1.5125999999999997 3.4586180419921875 1.5624749999999998 Q 3.4297430419921873 1.6123499999999997 3.4297430419921873 1.6738499999999998 Q 3.4297430419921873 1.7353499999999997 3.4586180419921875 1.7852249999999998 Q 3.4874930419921872 1.8350999999999997 3.5381180419921874 1.863225 Q 3.5887430419921875 1.8913499999999999 3.650993041992187 1.8913499999999999 Q 3.7132430419921874 1.8913499999999999 3.763493041992187 1.863225 M 4.110734985351562 1.8823499999999997 Q 4.0537349853515625 1.8238499999999997 4.0537349853515625 1.7120999999999997 L 4.0537349853515625 1.4113499999999997 L 4.109234985351562 1.4113499999999997 L 4.109234985351562 1.7098499999999999 Q 4.109234985351562 1.8013499999999998 4.150484985351562 1.8463499999999997 Q 4.191734985351562 1.8913499999999999 4.269734985351562 1.8913499999999999 Q 4.348484985351562 1.8913499999999999 4.389734985351562 1.8463499999999997 Q 4.430984985351562 1.8013499999999998 4.430984985351562 1.7098499999999999 L 4.430984985351562 1.4113499999999997 L 4.484984985351562 1.4113499999999997 L 4.484984985351562 1.7120999999999997 Q 4.484984985351562 1.8238499999999997 4.4283599853515625 1.8823499999999997 Q 4.371734985351562 1.9408499999999997 4.269734985351562 1.9408499999999997 Q 4.167734985351562 1.9408499999999997 4.110734985351562 1.8823499999999997 M 5.018229125976562 1.9363499999999998 L 4.898229125976562 1.7675999999999998 Q 4.877979125976562 1.7698499999999997 4.856229125976562 1.7698499999999997 L 4.715229125976562 1.7698499999999997 L 4.715229125976562 1.9363499999999998 L 4.659729125976562 1.9363499999999998 L 4.659729125976562 1.4113499999999997 L 4.856229125976562 1.4113499999999997 Q 4.956729125976563 1.4113499999999997 5.013729125976562 1.4593499999999997 Q 5.070729125976563 1.5073499999999997 5.070729125976563 1.5913499999999998 Q 5.070729125976563 1.6528499999999997 5.039604125976562 1.6952249999999998 Q 5.008479125976562 1.7375999999999998 4.9507291259765625 1.7563499999999999 L 5.078979125976563 1.9363499999999998 L 5.018229125976562 1.9363499999999998 M 4.973979125976562 1.6880999999999997 Q 5.015229125976562 1.6535999999999997 5.015229125976562 1.5913499999999998 Q 5.015229125976562 1.5275999999999998 4.973979125976562 1.4934749999999997 Q 4.932729125976563 1.4593499999999997 4.854729125976562 1.4593499999999997 L 4.715229125976562 1.4593499999999997 L 4.715229125976562 1.7226 L 4.854729125976562 1.7226 Q 4.932729125976563 1.7226 4.973979125976562 1.6880999999999997 M 6.134263916015626 1.4113499999999997 L 5.957263916015625 1.9363499999999998 L 5.898763916015626 1.9363499999999998 L 5.745013916015625 1.4885999999999997 L 5.590513916015626 1.9363499999999998 L 5.532763916015625 1.9363499999999998 L 5.355763916015626 1.4113499999999997 L 5.412763916015625 1.4113499999999997 L 5.5642639160156255 1.86285 L 5.721013916015625 1.4113499999999997 L 5.772763916015625 1.4113499999999997 L 5.927263916015626 1.8650999999999998 L 6.081013916015626 1.4113499999999997 L 6.134263916015626 1.4113499999999997 M 6.326659057617189 1.9059749999999998 Q 6.263284057617188 1.8710999999999998 6.227659057617188 1.8103499999999997 Q 6.192034057617188 1.7495999999999998 6.192034057617188 1.6738499999999998 Q 6.192034057617188 1.5980999999999999 6.227659057617188 1.5373499999999998 Q 6.263284057617188 1.4766 6.326659057617189 1.4417249999999997 Q 6.390034057617188 1.40685 6.468034057617189 1.40685 Q 6.546034057617188 1.40685 6.608659057617189 1.44135 Q 6.671284057617188 1.4758499999999999 6.707284057617188 1.5369749999999998 Q 6.743284057617188 1.5980999999999999 6.743284057617188 1.6738499999999998 Q 6.743284057617188 1.7495999999999998 6.707284057617188 1.8107249999999997 Q 6.671284057617188 1.8718499999999998 6.608659057617189 1.9063499999999998 Q 6.546034057617188 1.9408499999999997 6.468034057617189 1.9408499999999997 Q 6.390034057617188 1.9408499999999997 6.326659057617189 1.9059749999999998 M 6.5805340576171885 1.863225 Q 6.630784057617189 1.8350999999999997 6.659284057617188 1.7852249999999998 Q 6.687784057617188 1.7353499999999997 6.687784057617188 1.6738499999999998 Q 6.687784057617188 1.6123499999999997 6.659284057617188 1.5624749999999998 Q 6.630784057617189 1.5125999999999997 6.5805340576171885 1.4844749999999998 Q 6.530284057617188 1.4563499999999998 6.468034057617189 1.4563499999999998 Q 6.405784057617188 1.4563499999999998 6.355159057617188 1.4844749999999998 Q 6.304534057617189 1.5125999999999997 6.2756590576171885 1.5624749999999998 Q 6.246784057617188 1.6123499999999997 6.246784057617188 1.6738499999999998 Q 6.246784057617188 1.7353499999999997 6.2756590576171885 1.7852249999999998 Q 6.304534057617189 1.8350999999999997 6.355159057617188 1.863225 Q 6.405784057617188 1.8913499999999999 6.468034057617189 1.8913499999999999 Q 6.530284057617188 1.8913499999999999 6.5805340576171885 1.863225 M 7.2337760009765635 1.9363499999999998 L 7.113776000976563 1.7675999999999998 Q 7.0935260009765635 1.7698499999999997 7.071776000976564 1.7698499999999997 L 6.9307760009765635 1.7698499999999997 L 6.9307760009765635 1.9363499999999998 L 6.875276000976563 1.9363499999999998 L 6.875276000976563 1.4113499999999997 L 7.071776000976564 1.4113499999999997 Q 7.172276000976564 1.4113499999999997 7.229276000976563 1.4593499999999997 Q 7.286276000976564 1.5073499999999997 7.286276000976564 1.5913499999999998 Q 7.286276000976564 1.6528499999999997 7.255151000976563 1.6952249999999998 Q 7.224026000976563 1.7375999999999998 7.166276000976564 1.7563499999999999 L 7.294526000976564 1.9363499999999998 L 7.2337760009765635 1.9363499999999998 M 7.189526000976564 1.6880999999999997 Q 7.230776000976563 1.6535999999999997 7.230776000976563 1.5913499999999998 Q 7.230776000976563 1.5275999999999998 7.189526000976564 1.4934749999999997 Q 7.148276000976564 1.4593499999999997 7.0702760009765635 1.4593499999999997 L 6.9307760009765635 1.4593499999999997 L 6.9307760009765635 1.7226 L 7.0702760009765635 1.7226 Q 7.148276000976564 1.7226 7.189526000976564 1.6880999999999997 M 7.4250428466796885 1.4113499999999997 L 7.638792846679689 1.4113499999999997 Q 7.722042846679689 1.4113499999999997 7.785792846679689 1.4447249999999998 Q 7.849542846679689 1.4780999999999997 7.884792846679689 1.5377249999999998 Q 7.920042846679689 1.5973499999999998 7.920042846679689 1.6738499999999998 Q 7.920042846679689 1.7503499999999999 7.884792846679689 1.8099749999999997 Q 7.849542846679689 1.8695999999999997 7.785792846679689 1.9029749999999999 Q 7.722042846679689 1.9363499999999998 7.638792846679689 1.9363499999999998 L 7.4250428466796885 1.9363499999999998 L 7.4250428466796885 1.4113499999999997 M 7.6357928466796885 1.8883499999999998 Q 7.7047928466796884 1.8883499999999998 7.756542846679689 1.8609749999999998 Q 7.808292846679689 1.8335999999999997 7.836792846679689 1.7852249999999998 Q 7.865292846679689 1.7368499999999998 7.865292846679689 1.6738499999999998 Q 7.865292846679689 1.6108499999999997 7.836792846679689 1.5624749999999998 Q 7.808292846679689 1.5140999999999998 7.756542846679689 1.4867249999999999 Q 7.7047928466796884 1.4593499999999997 7.6357928466796885 1.4593499999999997 L 7.480542846679689 1.4593499999999997 L 7.480542846679689 1.8883499999999998 L 7.6357928466796885 1.8883499999999998 M 8.084659423828127 1.9220999999999997 Q 8.031034423828126 1.9033499999999999 8.001784423828127 1.8725999999999998 L 8.023534423828126 1.8298499999999998 Q 8.052034423828127 1.8583499999999997 8.099284423828127 1.8759749999999997 Q 8.146534423828127 1.8935999999999997 8.196784423828127 1.8935999999999997 Q 8.267284423828126 1.8935999999999997 8.302534423828126 1.8677249999999999 Q 8.337784423828127 1.8418499999999998 8.337784423828127 1.8005999999999998 Q 8.337784423828127 1.7691 8.318659423828127 1.7503499999999999 Q 8.299534423828126 1.7315999999999998 8.271784423828127 1.7214749999999999 Q 8.244034423828127 1.7113499999999997 8.194534423828127 1.6993499999999997 Q 8.135284423828127 1.6843499999999998 8.100034423828127 1.6704749999999997 Q 8.064784423828126 1.6565999999999999 8.039659423828127 1.6280999999999999 Q 8.014534423828126 1.5995999999999997 8.014534423828126 1.5508499999999998 Q 8.014534423828126 1.5110999999999999 8.035534423828127 1.4784749999999998 Q 8.056534423828127 1.4458499999999999 8.100034423828127 1.4263499999999998 Q 8.143534423828127 1.40685 8.208034423828126 1.40685 Q 8.253034423828126 1.40685 8.296159423828126 1.4192249999999997 Q 8.339284423828127 1.4315999999999998 8.370784423828127 1.45335 L 8.352034423828126 1.4975999999999998 Q 8.319034423828127 1.4758499999999999 8.281534423828127 1.464975 Q 8.244034423828127 1.4540999999999997 8.208034423828126 1.4540999999999997 Q 8.139034423828127 1.4540999999999997 8.104159423828127 1.4807249999999998 Q 8.069284423828126 1.5073499999999997 8.069284423828126 1.5493499999999998 Q 8.069284423828126 1.5808499999999999 8.088409423828127 1.5999749999999997 Q 8.107534423828128 1.6190999999999998 8.136409423828127 1.629225 Q 8.165284423828126 1.6393499999999999 8.214034423828126 1.6513499999999999 Q 8.271784423828127 1.6655999999999997 8.307409423828126 1.6794749999999998 Q 8.343034423828126 1.6933499999999997 8.367784423828127 1.7214749999999999 Q 8.392534423828126 1.7495999999999998 8.392534423828126 1.7975999999999999 Q 8.392534423828126 1.8373499999999998 8.371159423828127 1.8699749999999997 Q 8.349784423828126 1.9025999999999998 8.305534423828126 1.9217249999999997 Q 8.261284423828126 1.9408499999999997 8.196784423828127 1.9408499999999997 Q 8.138284423828127 1.9408499999999997 8.084659423828127 1.9220999999999997 M 9.163545043945314 1.4113499999999997 L 9.163545043945314 1.9363499999999998 L 9.108795043945314 1.9363499999999998 L 9.108795043945314 1.6940999999999997 L 8.780295043945314 1.6940999999999997 L 8.780295043945314 1.9363499999999998 L 8.724795043945313 1.9363499999999998 L 8.724795043945313 1.4113499999999997 L 8.780295043945314 1.4113499999999997 L 8.780295043945314 1.6453499999999999 L 9.108795043945314 1.6453499999999999 L 9.108795043945314 1.4113499999999997 L 9.163545043945314 1.4113499999999997 M 9.713286254882814 1.8883499999999998 L 9.713286254882814 1.9363499999999998 L 9.342036254882814 1.9363499999999998 L 9.342036254882814 1.4113499999999997 L 9.702036254882813 1.4113499999999997 L 9.702036254882813 1.4593499999999997 L 9.397536254882814 1.4593499999999997 L 9.397536254882814 1.6460999999999997 L 9.669036254882814 1.6460999999999997 L 9.669036254882814 1.6933499999999997 L 9.397536254882814 1.6933499999999997 L 9.397536254882814 1.8883499999999998 L 9.713286254882814 1.8883499999999998 M 10.209791015625003 1.9363499999999998 L 10.089791015625002 1.7675999999999998 Q 10.069541015625003 1.7698499999999997 10.047791015625002 1.7698499999999997 L 9.906791015625002 1.7698499999999997 L 9.906791015625002 1.9363499999999998 L 9.851291015625002 1.9363499999999998 L 9.851291015625002 1.4113499999999997 L 10.047791015625002 1.4113499999999997 Q 10.148291015625002 1.4113499999999997 10.205291015625003 1.4593499999999997 Q 10.262291015625001 1.5073499999999997 10.262291015625001 1.5913499999999998 Q 10.262291015625001 1.6528499999999997 10.231166015625002 1.6952249999999998 Q 10.200041015625002 1.7375999999999998 10.142291015625002 1.7563499999999999 L 10.270541015625001 1.9363499999999998 L 10.209791015625003 1.9363499999999998 M 10.165541015625001 1.6880999999999997 Q 10.206791015625003 1.6535999999999997 10.206791015625003 1.5913499999999998 Q 10.206791015625003 1.5275999999999998 10.165541015625001 1.4934749999999997 Q 10.124291015625001 1.4593499999999997 10.046291015625002 1.4593499999999997 L 9.906791015625002 1.4593499999999997 L 9.906791015625002 1.7226 L 10.046291015625002 1.7226 Q 10.124291015625001 1.7226 10.165541015625001 1.6880999999999997 M 10.772307861328127 1.8883499999999998 L 10.772307861328127 1.9363499999999998 L 10.401057861328127 1.9363499999999998 L 10.401057861328127 1.4113499999999997 L 10.761057861328126 1.4113499999999997 L 10.761057861328126 1.4593499999999997 L 10.456557861328127 1.4593499999999997 L 10.456557861328127 1.6460999999999997 L 10.728057861328127 1.6460999999999997 L 10.728057861328127 1.6933499999999997 L 10.456557861328127 1.6933499999999997 L 10.456557861328127 1.8883499999999998 L 10.772307861328127 1.8883499999999998" fill="#3e7742" fill-rule="nonzero"></path></g><g clip-path="url(#SvgjsClipPath1001)"><g clip-path="url(#SvgjsClipPath1000ac5f9708-ebd8-4365-8983-fdc8b83eebca)"><path d=" M 2.9448320200708995 -3.296514900067253 L 3.1162340794258143 -3.467916959422168 L 3.7920824541848046 -2.792068584663178 L 3.62068039482989 -2.6206665253082626 Z" fill="#3e7742" transform="matrix(1,0,0,1,0,0)" fill-rule="nonzero"></path></g><g clip-path="url(#SvgjsClipPath1000ac5f9708-ebd8-4365-8983-fdc8b83eebca)"><path d=" M 3.748381131336745 -4.10025235404058 L 3.9197831906916583 -4.2716544133954955 L 4.595646308445605 -3.5957912956415488 L 4.42424424909069 -3.4243892362866335 Z" fill="#3e7742" transform="matrix(1,0,0,1,0,0)" fill-rule="nonzero"></path></g><g clip-path="url(#SvgjsClipPath1000ac5f9708-ebd8-4365-8983-fdc8b83eebca)"><path d=" M 4.150329074713747 -4.5019298743815845 L 4.826069258837412 -3.8261896902579196 L 5.502017940395239 -3.1502410087000916 L 5.673402831277576 -3.321625899582428 L 4.997454149719748 -3.997574581140257 L 4.321713965596084 -4.673314765263921 L 4.150329074713747 -4.5019298743815845 Z" fill="#3e7742" transform="matrix(1,0,0,1,0,0)" fill-rule="nonzero"></path></g><g clip-path="url(#SvgjsClipPath1000ac5f9708-ebd8-4365-8983-fdc8b83eebca)"><path d=" M 2.944872662847399 -6.134229805341102 L 3.620712188116195 -6.810116514756679 L 3.7921202304272468 -6.638720438566747 L 3.1162807051584505 -5.96283372915117 Z" fill="#3e7742" transform="matrix(1,0,0,1,0,0)" fill-rule="nonzero"></path></g><g clip-path="url(#SvgjsClipPath1000ac5f9708-ebd8-4365-8983-fdc8b83eebca)"><path d=" M 3.3465274532521505 -5.732521667374831 L 4.6982684317549985 -7.084262645877679 L 4.869699977099827 -6.912831100532852 L 3.5179589985969772 -5.561090122030004 Z" fill="#3e7742" transform="matrix(1,0,0,1,0,0)" fill-rule="nonzero"></path></g><g clip-path="url(#SvgjsClipPath1000ac5f9708-ebd8-4365-8983-fdc8b83eebca)"><path d=" M 3.748448486931265 -5.330666682459274 L 4.42431160468521 -6.00652980021322 L 4.595713664040125 -5.8351277408583035 L 3.91985054628618 -5.159264623104359 Z" fill="#3e7742" transform="matrix(1,0,0,1,0,0)" fill-rule="nonzero"></path></g><g clip-path="url(#SvgjsClipPath1000ac5f9708-ebd8-4365-8983-fdc8b83eebca)"><path d=" M 4.150306638233929 -4.928964989789317 L 5.50196505324963 -6.280670587407923 L 5.67335536085645 -6.109286262347034 L 4.321696945840752 -4.757580664728429 Z" fill="#3e7742" transform="matrix(1,0,0,1,0,0)" fill-rule="nonzero"></path></g><g clip-path="url(#SvgjsClipPath1000ac5f9708-ebd8-4365-8983-fdc8b83eebca)"><path d=" M 2.097574607333772 -2.7920830944892785 L 2.7734347777692094 -3.467919673365949 L 2.9448338455677376 -3.2965146225068587 L 2.268973675132302 -2.620678043630189 Z" fill="#3e7742" transform="matrix(1,0,0,1,0,0)" fill-rule="nonzero"></path></g><g clip-path="url(#SvgjsClipPath1000ac5f9708-ebd8-4365-8983-fdc8b83eebca)"><path d=" M 1.2939635686486592 -3.595686536213284 L 1.969826686402605 -4.271549653967231 L 2.1412287457575223 -4.100147594612315 L 1.4653656280035745 -3.424284476858368 Z" fill="#3e7742" transform="matrix(1,0,0,1,0,0)" fill-rule="nonzero"></path></g><g clip-path="url(#SvgjsClipPath1000ac5f9708-ebd8-4365-8983-fdc8b83eebca)"><path d=" M 1.7393064455347185 -4.5019298743815845 L 1.063566261411054 -3.8261896902579196 L 0.3876175798532258 -3.1502410087000916 L 0.21623268897088943 -3.321625899582428 L 0.8921813705287173 -3.997574581140257 L 1.567921554652382 -4.673314765263921 L 1.7393064455347185 -4.5019298743815845 Z" fill="#3e7742" transform="matrix(1,0,0,1,0,0)" fill-rule="nonzero"></path></g><g clip-path="url(#SvgjsClipPath1000ac5f9708-ebd8-4365-8983-fdc8b83eebca)"><path d=" M 2.0975401910998897 -6.638850727253356 L 2.2689482334109403 -6.810246803443286 L 2.9447730161994183 -6.134374837537284 L 2.7733649738883677 -5.962978761347353 Z" fill="#3e7742" transform="matrix(1,0,0,1,0,0)" fill-rule="nonzero"></path></g><g clip-path="url(#SvgjsClipPath1000ac5f9708-ebd8-4365-8983-fdc8b83eebca)"><path d=" M 1.019915845823275 -6.912744218965029 L 1.1913473911681018 -7.084175764309856 L 2.5430883696709494 -5.7324347858070075 L 2.3716568243261227 -5.56100324046218 Z" fill="#3e7742" transform="matrix(1,0,0,1,0,0)" fill-rule="nonzero"></path></g><g clip-path="url(#SvgjsClipPath1000ac5f9708-ebd8-4365-8983-fdc8b83eebca)"><path d=" M 3.346585285767411 -3.6983413690281726 L 3.518016831112237 -3.8697729143730006 L 4.869757809615085 -2.51803193587015 L 4.698326264270259 -2.3466003905253237 Z" fill="#3e7742" transform="matrix(1,0,0,1,0,0)" fill-rule="nonzero"></path></g><g clip-path="url(#SvgjsClipPath1000ac5f9708-ebd8-4365-8983-fdc8b83eebca)"><path d=" M 1.0198816431183728 -2.518028453275993 L 2.3716226216212215 -3.869769431778842 L 2.5430541669660474 -3.6983378864340155 L 1.1913131884631998 -2.3465969079311675 Z" fill="#3e7742" transform="matrix(1,0,0,1,0,0)" fill-rule="nonzero"></path></g><g clip-path="url(#SvgjsClipPath1000ac5f9708-ebd8-4365-8983-fdc8b83eebca)"><path d=" M 3.116327749467067 -9.009435903560698 L 2.944942858584731 -8.838051012678362 L 1.019886048953816 -6.912785705613283 L 0.8485011580714795 -7.084379093929783 L 2.773349470268231 -9.009435903560698 L 2.944942858584731 -9.180820794443035 L 3.116327749467067 -9.009435903560698 Z" fill="#3e7742" transform="matrix(1,0,0,1,0,0)" fill-rule="nonzero"></path></g><g clip-path="url(#SvgjsClipPath1000ac5f9708-ebd8-4365-8983-fdc8b83eebca)"><path d=" M 5.041176061663819 -7.084379093929783 L 4.869791170781482 -6.912785705613283 L 2.944942858584731 -8.838051012678362 L 2.773349470268231 -9.009435903560698 L 2.944942858584731 -9.180820794443035 L 3.116327749467067 -9.009435903560698 L 5.041176061663819 -7.084379093929783 Z" fill="#3e7742" transform="matrix(1,0,0,1,0,0)" fill-rule="nonzero"></path></g><g clip-path="url(#SvgjsClipPath1000ac5f9708-ebd8-4365-8983-fdc8b83eebca)"><path d=" M 3.116327749467067 -0.4213848908823348 L 2.944942858584731 -0.5927697817646713 L 1.019886048953816 -2.51803508882975 L 0.8485011580714795 -2.3464417005132505 L 2.773349470268231 -0.4213848908823348 L 2.944942858584731 -0.24999999999999822 L 3.116327749467067 -0.4213848908823348 Z" fill="#3e7742" transform="matrix(1,0,0,1,0,0)" fill-rule="nonzero"></path></g><g clip-path="url(#SvgjsClipPath1000ac5f9708-ebd8-4365-8983-fdc8b83eebca)"><path d=" M 5.041176061663819 -2.3464417005132505 L 4.869791170781482 -2.51803508882975 L 2.944942858584731 -0.5927697817646713 L 2.773349470268231 -0.4213848908823348 L 2.944942858584731 -0.24999999999999822 L 3.116327749467067 -0.4213848908823348 L 5.041176061663819 -2.3464417005132505 Z" fill="#3e7742" transform="matrix(1,0,0,1,0,0)" fill-rule="nonzero"></path></g><g clip-path="url(#SvgjsClipPath1000ac5f9708-ebd8-4365-8983-fdc8b83eebca)"><path d=" M 1.2939180392796021 -5.835210629120784 L 1.4653200986345172 -6.006612688475698 L 2.141183216388464 -5.3307495707217525 L 1.9697811570335488 -5.159347511366837 Z" fill="#3e7742" transform="matrix(1,0,0,1,0,0)" fill-rule="nonzero"></path></g><g clip-path="url(#SvgjsClipPath1000ac5f9708-ebd8-4365-8983-fdc8b83eebca)"><path d=" M 0.2162035138605251 -6.1092691754096204 L 0.3875908302204848 -6.28065649176958 L 1.739272836743511 -4.928974485246554 L 1.5678855203835504 -4.7575871688865945 Z" fill="#3e7742" transform="matrix(1,0,0,1,0,0)" fill-rule="nonzero"></path></g><g clip-path="url(#SvgjsClipPath1000ac5f9708-ebd8-4365-8983-fdc8b83eebca)"><path d=" M 2.9448177601242334 -3.595716626533668 L 1.8251239894363847 -4.7154103972215164 L 2.9448177601242334 -5.835187566883031 L 4.064490681068665 -4.7154103972215164 L 2.9448177601242334 -3.595716626533668 L 2.9448177601242334 -3.595716626533668 L 2.9448177601242334 -3.595716626533668 L 2.9448177601242334 -3.595716626533668 L 2.9448177601242334 -3.595716626533668 Z" fill="#431a10" transform="matrix(1,0,0,1,0,0)" fill-rule="nonzero"></path></g><g clip-path="url(#SvgjsClipPath1000ac5f9708-ebd8-4365-8983-fdc8b83eebca)"><path d=" M 5.303340735380911 -4.129136462097378 L 4.717045950513356 -4.7154312469649335 L 5.303340735380911 -5.3017677313193206 L 5.889635520248467 -4.7154312469649335 L 5.303340735380911 -4.129136462097378 L 5.303340735380911 -4.129136462097378 L 5.303340735380911 -4.129136462097378 L 5.303340735380911 -4.129136462097378 L 5.303340735380911 -4.129136462097378 Z" fill="#431a10" transform="matrix(1,0,0,1,0,0)" fill-rule="nonzero"></path></g><g clip-path="url(#SvgjsClipPath1000ac5f9708-ebd8-4365-8983-fdc8b83eebca)"><path d=" M 0.5862947848675547 -4.129136462097378 L 1.1725895697351094 -4.7154312469649335 L 0.5862947848675547 -5.3017677313193206 L 0 -4.7154312469649335 L 0.5862947848675547 -4.129136462097378 L 0.5862947848675547 -4.129136462097378 L 0.5862947848675547 -4.129136462097378 L 0.5862947848675547 -4.129136462097378 L 0.5862947848675547 -4.129136462097378 Z" fill="#431a10" transform="matrix(1,0,0,1,0,0)" fill-rule="nonzero"></path></g><g clip-path="url(#SvgjsClipPath1000ac5f9708-ebd8-4365-8983-fdc8b83eebca)"><path d=" M 3.5530256253223635 -7.695735270383782 L 2.9448177601242334 -7.087506555442234 L 2.3366098949261023 -7.695735270383782 L 3.5530256253223635 -7.695735270383782 Z" fill="#431a10" transform="matrix(1,0,0,1,0,0)" fill-rule="nonzero"></path></g><g clip-path="url(#SvgjsClipPath1000ac5f9708-ebd8-4365-8983-fdc8b83eebca)"><path d=" M 3.661485990574178 -7.291271097850151 L 2.9447969103808163 -6.574582017656789 L 2.2281286799308715 -7.291271097850151 L 3.661485990574178 -7.291271097850151 Z" fill="#431a10" transform="matrix(1,0,0,1,0,0)" fill-rule="nonzero"></path></g><g clip-path="url(#SvgjsClipPath1000ac5f9708-ebd8-4365-8983-fdc8b83eebca)"><path d=" M 3.5530256253223635 -1.7350855240592526 L 2.9448177601242334 -2.343293389257383 L 2.3366098949261023 -1.7350855240592526 L 3.5530256253223635 -1.7350855240592526 Z" fill="#431a10" transform="matrix(1,0,0,1,0,0)" fill-rule="nonzero"></path></g><g clip-path="url(#SvgjsClipPath1000ac5f9708-ebd8-4365-8983-fdc8b83eebca)"><path d=" M 3.661485990574178 -2.1395496965928826 L 2.9447969103808163 -2.8562387767862436 L 2.2281286799308715 -2.1395496965928826 L 3.661485990574178 -2.1395496965928826 Z" fill="#431a10" transform="matrix(1,0,0,1,0,0)" fill-rule="nonzero"></path></g></g></g><defs><clipPath id="SvgjsClipPath1001"><path d=" M 0 -9.180820794443035 h 5.889635520248467 v 8.930820794443035 h -5.889635520248467 Z"></path></clipPath><clipPath id="SvgjsClipPath1000ac5f9708-ebd8-4365-8983-fdc8b83eebca"><path d=" M 0 -9.180820794443035 L 5.889635520248467 -9.180820794443035 L 5.889635520248467 -0.25 L 0 -0.25 Z"></path></clipPath></defs></svg>